<svg xmlns="http://www.w3.org/2000/svg" viewBox="12763 388 62.4 62.4">
  <defs>
    <style>
      .cls-1 {
        fill: #15c432;
      }
    </style>
  </defs>
  <path id="ic_library_add_24px" class="cls-1" d="M8.24,14.48H2V58.16A6.258,6.258,0,0,0,8.24,64.4H51.92V58.16H8.24ZM58.16,2H20.72a6.258,6.258,0,0,0-6.24,6.24V45.68a6.258,6.258,0,0,0,6.24,6.24H58.16a6.258,6.258,0,0,0,6.24-6.24V8.24A6.258,6.258,0,0,0,58.16,2ZM55.04,30.08H42.56V42.56H36.32V30.08H23.84V23.84H36.32V11.36h6.24V23.84H55.04Z" transform="translate(12761 386)"/>
</svg>
