<svg xmlns="http://www.w3.org/2000/svg" viewBox="12457.1 389.1 61.301 61.3">
  <defs>
    <style>
      .cls-1 {
        fill: #07f;
      }
    </style>
  </defs>
  <path id="ic_library_books_24px" class="cls-1" d="M8.13,14.26H2V57.17A6.148,6.148,0,0,0,8.13,63.3H51.04V57.17H8.13ZM57.17,2H20.39a6.148,6.148,0,0,0-6.13,6.13V44.91a6.148,6.148,0,0,0,6.13,6.13H57.17a6.148,6.148,0,0,0,6.13-6.13V8.13A6.148,6.148,0,0,0,57.17,2ZM54.105,29.585H23.455v-6.13h30.65Zm-12.26,12.26H23.455v-6.13h18.39Zm12.26-24.52H23.455V11.2h30.65Z" transform="translate(12455.1 387.1)"/>
</svg>
