<svg xmlns="http://www.w3.org/2000/svg" viewBox="10144.333 402 24.843 19.748">
  <defs>
    <style>
      .cls-1 {
        fill: #fff;
      }
    </style>
  </defs>
  <g id="dashboard" transform="translate(10144.333 349.501)">
    <g id="Group_759" data-name="Group 759" transform="translate(0 52.499)">
      <g id="Group_758" data-name="Group 758">
        <path id="Path_643" data-name="Path 643" class="cls-1" d="M207.631,123.782a.971.971,0,0,0-1.233-.116c-1.452.99-8.735,5.967-9.518,6.749A2.911,2.911,0,0,0,201,134.533c.783-.783,5.759-8.066,6.749-9.518A.971.971,0,0,0,207.631,123.782Zm-8.006,9.378a.97.97,0,0,1-1.372-1.372c.3-.3,2.372-1.775,4.916-3.544C201.4,130.789,199.925,132.857,199.625,133.161Z" transform="translate(-186.517 -120.053)"/>
        <path id="Path_644" data-name="Path 644" class="cls-1" d="M4.475,69.434l-1.2.584A10.432,10.432,0,0,1,2.623,61.2L4,61.858a.97.97,0,1,0,.839-1.75l-1.355-.65a10.494,10.494,0,0,1,7.971-4.974v1.46a.97.97,0,1,0,1.941,0v-1.46a10.36,10.36,0,0,1,3.337.879.97.97,0,1,0,.8-1.769A12.411,12.411,0,0,0,2.1,71.816a.97.97,0,0,0,1.232.333l1.989-.97a.97.97,0,1,0-.851-1.744Z" transform="translate(0 -52.499)"/>
        <path id="Path_645" data-name="Path 645" class="cls-1" d="M394.82,192.065a.97.97,0,1,0-1.769.8,10.446,10.446,0,0,1-.417,9.413l-1.251-.6a.97.97,0,0,0-.834,1.752l2.038.97a.97.97,0,0,0,1.224-.337,12.392,12.392,0,0,0,1.01-12Z" transform="translate(-371.072 -184.75)"/>
      </g>
    </g>
  </g>
</svg>
