<svg xmlns="http://www.w3.org/2000/svg" viewBox="10155 796.8 26 26">
  <defs>
    <style>
      .cls-1 {
        fill: #fff;
      }

      .cls-2 {
        fill: #933ec5;
      }
    </style>
  </defs>
  <g id="document" transform="translate(9265 981)">
    <g id="Group_14" data-name="Group 14" transform="translate(890 -184.2)">
      <g id="Group_13" data-name="Group 13">
        <path id="Path_7" data-name="Path 7" class="cls-1" d="M86.1,232H64.433a.433.433,0,0,0-.433.433v2.6a1.3,1.3,0,0,0,1.3,1.3H85.233a1.3,1.3,0,0,0,1.3-1.3v-2.6A.433.433,0,0,0,86.1,232Zm-.433,3.033a.433.433,0,0,1-.433.433H65.3a.433.433,0,0,1-.433-.433v-2.167h2.167v.433H67.9v-.433h1.733v1.3H70.5v-1.3h1.733v.433H73.1v-.433h1.733v1.3H75.7v-1.3h1.733v.433H78.3v-.433h1.733v1.3H80.9v-1.3h1.733v.433H83.5v-.433h2.167Z" transform="translate(-60.533 -219.433)"/>
        <path id="Path_8" data-name="Path 8" class="cls-1" d="M19.067,25.133H.867V.867h14.3v2.6a1.3,1.3,0,0,0,1.3,1.3h2.6V11.7h.867V4.333c0-.01,0-.018-.006-.027a.409.409,0,0,0-.022-.111c0-.014-.008-.027-.014-.041a.426.426,0,0,0-.087-.127L15.9.127a.427.427,0,0,0-.13-.087c-.012-.005-.024-.009-.036-.013A.425.425,0,0,0,15.62,0s-.012,0-.02,0H.433A.433.433,0,0,0,0,.433V25.567A.433.433,0,0,0,.433,26H19.5a.433.433,0,0,0,.433-.433V22.533h-.867ZM16.033,1.479,18.454,3.9H16.467a.433.433,0,0,1-.433-.433Z"/>
        <rect id="Rectangle_698" data-name="Rectangle 698" class="cls-2" width="1.733" height="0.867" transform="translate(2.6 3.467)"/>
        <rect id="Rectangle_699" data-name="Rectangle 699" class="cls-1" width="8.667" height="0.867" transform="translate(5.2 3.467)"/>
        <rect id="Rectangle_700" data-name="Rectangle 700" class="cls-1" width="11.267" height="0.867" transform="translate(2.6 6.067)"/>
        <rect id="Rectangle_701" data-name="Rectangle 701" class="cls-2" width="0.867" height="0.867" transform="translate(2.6 8.667)"/>
        <rect id="Rectangle_702" data-name="Rectangle 702" class="cls-1" width="12.567" height="0.867" transform="translate(4.333 8.667)"/>
        <path id="Path_9" data-name="Path 9" class="cls-1" d="M83.935,328H66.168a.433.433,0,0,0-.306.127l-1.733,1.733a.433.433,0,0,0,0,.613l1.733,1.733a.433.433,0,0,0,.306.127H83.935a2.167,2.167,0,0,0,0-4.333Zm-18.2,2.854-.687-.687.687-.687Zm15.6.613H66.6V330.6H81.335Zm0-1.733H66.6v-.867H81.335Zm1.3,1.733H82.2v-2.6h.433Zm1.3,0H83.5v-2.6h.433a1.3,1.3,0,0,1,0,2.6Z" transform="translate(-60.535 -310.233)"/>
      </g>
    </g>
  </g>
</svg>
