<svg xmlns="http://www.w3.org/2000/svg" viewBox="8160 1010 21 21">
  <defs>
    <style>
      .cls-1 {
        fill: none;
      }

      .cls-2 {
        fill: #fff;
        fill-rule: evenodd;
      }
    </style>
  </defs>
  <g id="Symbol_3" data-name="Symbol 3" transform="translate(8138 671)">
    <rect id="Rectangle_118" data-name="Rectangle 118" class="cls-1" width="21" height="21" transform="translate(22 339)"/>
    <path id="Path_49" data-name="Path 49" class="cls-2" d="M9.188,10.5a2.625,2.625,0,1,1-2.625,2.625A2.633,2.633,0,0,1,9.188,10.5Zm0-7.875A2.633,2.633,0,0,0,6.563,5.25h5.25A2.633,2.633,0,0,0,9.188,2.625ZM15.75,21H2.625A2.633,2.633,0,0,1,0,18.375V7.875A2.633,2.633,0,0,1,2.625,5.25H3.938a5.25,5.25,0,1,1,10.5,0H15.75a2.633,2.633,0,0,1,2.625,2.625v10.5A2.633,2.633,0,0,1,15.75,21Z" transform="translate(23.313 339)"/>
  </g>
</svg>
