<svg xmlns="http://www.w3.org/2000/svg" xmlns:xlink="http://www.w3.org/1999/xlink" viewBox="2808 384 62.1 69">
  <defs>
    <style>
      .cls-1 {
        fill: url(#linear-gradient);
      }
    </style>
    <linearGradient id="linear-gradient" x1="0.5" x2="0.554" y2="1.897" gradientUnits="objectBoundingBox">
      <stop offset="0" stop-color="#fa0"/>
      <stop offset="1" stop-color="#ff6f00"/>
    </linearGradient>
  </defs>
  <path id="ic_assignment_24px" class="cls-1" d="M58.2,7.9H43.779a10.309,10.309,0,0,0-19.458,0H9.9A6.92,6.92,0,0,0,3,14.8V63.1A6.92,6.92,0,0,0,9.9,70H58.2a6.92,6.92,0,0,0,6.9-6.9V14.8A6.92,6.92,0,0,0,58.2,7.9Zm-24.15,0a3.45,3.45,0,1,1-3.45,3.45A3.46,3.46,0,0,1,34.05,7.9Zm6.9,48.3H16.8V49.3H40.95ZM51.3,42.4H16.8V35.5H51.3Zm0-13.8H16.8V21.7H51.3Z" transform="translate(2805 383)"/>
</svg>
