<svg xmlns="http://www.w3.org/2000/svg" viewBox="1971 601 19.57 20.6">
  <defs>
    <style>
      .cls-1 {
        fill: #fff;
        fill-rule: evenodd;
      }
    </style>
  </defs>
  <path id="Path_10" data-name="Path 10" class="cls-1" d="M269.656,12.875a2.575,2.575,0,1,0-2.575-2.575A2.583,2.583,0,0,0,269.656,12.875Zm-5.279-8.24a7.261,7.261,0,0,1,3.09-1.674L268.5,0h2.575l1.03,2.961a8.991,8.991,0,0,1,3.09,1.674l3.09-.644,1.288,2.317-2.06,2.317a7.341,7.341,0,0,1,.129,1.674c0,.515-.129,1.159-.129,1.674l2.06,2.317-1.288,2.317-3.09-.644a7.261,7.261,0,0,1-3.09,1.674l-1.03,2.961H268.5l-1.03-2.961a8.991,8.991,0,0,1-3.09-1.674l-3.09.644L260,14.291l2.06-2.317a7.341,7.341,0,0,1-.129-1.674c0-.515.129-1.159.129-1.674L260,6.309l1.288-2.317Z" transform="translate(1711 601)"/>
</svg>
